<mxfile host="Electron" agent="Mozilla/5.0 (Macintosh; Intel Mac OS X 10_15_7) AppleWebKit/537.36 (KHTML, like Gecko) draw.io/25.0.2 Chrome/128.0.6613.186 Electron/32.2.5 Safari/537.36" version="25.0.2">
  <diagram name="Page-1" id="Kc5pvPjDALnd5UTPwN8J">
    <mxGraphModel dx="2468" dy="2760" grid="0" gridSize="10" guides="1" tooltips="1" connect="1" arrows="1" fold="1" page="0" pageScale="1" pageWidth="850" pageHeight="1100" math="0" shadow="0">
      <root>
        <mxCell id="0" />
        <mxCell id="1" parent="0" />
        <mxCell id="FQKN6vaa_cV45zGIfi0E-1" value="Kubernetes" style="swimlane;whiteSpace=wrap;html=1;fillColor=#6B09E1;" vertex="1" parent="1">
          <mxGeometry x="631" y="-902" width="2182" height="1373" as="geometry" />
        </mxCell>
        <mxCell id="FQKN6vaa_cV45zGIfi0E-2" value="" style="shape=flexArrow;endArrow=classic;html=1;rounded=0;entryX=-0.001;entryY=0.561;entryDx=0;entryDy=0;entryPerimeter=0;exitX=0.943;exitY=0.607;exitDx=0;exitDy=0;exitPerimeter=0;" edge="1" parent="FQKN6vaa_cV45zGIfi0E-1" source="FQKN6vaa_cV45zGIfi0E-35" target="FQKN6vaa_cV45zGIfi0E-3">
          <mxGeometry width="50" height="50" relative="1" as="geometry">
            <mxPoint x="1132" y="331" as="sourcePoint" />
            <mxPoint x="1426" y="331" as="targetPoint" />
          </mxGeometry>
        </mxCell>
        <mxCell id="FQKN6vaa_cV45zGIfi0E-3" value="Firebase Connector" style="shape=cube;whiteSpace=wrap;html=1;boundedLbl=1;backgroundOutline=1;darkOpacity=0.05;darkOpacity2=0.1;" vertex="1" parent="FQKN6vaa_cV45zGIfi0E-1">
          <mxGeometry x="1465" y="262" width="272" height="124" as="geometry" />
        </mxCell>
        <mxCell id="FQKN6vaa_cV45zGIfi0E-4" value="Kafka-stream" style="shape=cylinder3;whiteSpace=wrap;html=1;boundedLbl=1;backgroundOutline=1;size=15;" vertex="1" parent="FQKN6vaa_cV45zGIfi0E-1">
          <mxGeometry x="841" y="694" width="856" height="80" as="geometry" />
        </mxCell>
        <mxCell id="FQKN6vaa_cV45zGIfi0E-5" value="Java-API" style="shape=cube;whiteSpace=wrap;html=1;boundedLbl=1;backgroundOutline=1;darkOpacity=0.05;darkOpacity2=0.1;" vertex="1" parent="FQKN6vaa_cV45zGIfi0E-1">
          <mxGeometry x="290" y="689.5" width="120" height="80" as="geometry" />
        </mxCell>
        <mxCell id="FQKN6vaa_cV45zGIfi0E-6" value="Kafka ELK connector" style="shape=cube;whiteSpace=wrap;html=1;boundedLbl=1;backgroundOutline=1;darkOpacity=0.05;darkOpacity2=0.1;" vertex="1" parent="FQKN6vaa_cV45zGIfi0E-1">
          <mxGeometry x="1287" y="855" width="120" height="80" as="geometry" />
        </mxCell>
        <mxCell id="FQKN6vaa_cV45zGIfi0E-7" value="ELK" style="shape=cylinder3;whiteSpace=wrap;html=1;boundedLbl=1;backgroundOutline=1;size=15;" vertex="1" parent="FQKN6vaa_cV45zGIfi0E-1">
          <mxGeometry x="844" y="1040" width="825" height="80" as="geometry" />
        </mxCell>
        <mxCell id="FQKN6vaa_cV45zGIfi0E-8" value="microservice-draft-generator" style="shape=cube;whiteSpace=wrap;html=1;boundedLbl=1;backgroundOutline=1;darkOpacity=0.05;darkOpacity2=0.1;" vertex="1" parent="FQKN6vaa_cV45zGIfi0E-1">
          <mxGeometry x="1006" y="865" width="120" height="80" as="geometry" />
        </mxCell>
        <mxCell id="FQKN6vaa_cV45zGIfi0E-9" value="Grafana loki" style="shape=cube;whiteSpace=wrap;html=1;boundedLbl=1;backgroundOutline=1;darkOpacity=0.05;darkOpacity2=0.1;" vertex="1" parent="FQKN6vaa_cV45zGIfi0E-1">
          <mxGeometry x="1023" y="1210" width="120" height="80" as="geometry" />
        </mxCell>
        <mxCell id="FQKN6vaa_cV45zGIfi0E-10" value="Postgres DB" style="shape=cylinder3;whiteSpace=wrap;html=1;boundedLbl=1;backgroundOutline=1;size=15;" vertex="1" parent="FQKN6vaa_cV45zGIfi0E-1">
          <mxGeometry x="581" y="682" width="85" height="95" as="geometry" />
        </mxCell>
        <mxCell id="FQKN6vaa_cV45zGIfi0E-11" value="Debezium" style="text;html=1;align=center;verticalAlign=middle;resizable=0;points=[];autosize=1;strokeColor=none;fillColor=none;" vertex="1" parent="FQKN6vaa_cV45zGIfi0E-1">
          <mxGeometry x="714" y="682" width="72" height="26" as="geometry" />
        </mxCell>
        <mxCell id="FQKN6vaa_cV45zGIfi0E-12" value="" style="shape=flexArrow;endArrow=classic;startArrow=classic;html=1;rounded=0;entryX=0.592;entryY=0.995;entryDx=0;entryDy=0;entryPerimeter=0;" edge="1" parent="FQKN6vaa_cV45zGIfi0E-1" source="FQKN6vaa_cV45zGIfi0E-6" target="FQKN6vaa_cV45zGIfi0E-4">
          <mxGeometry width="100" height="100" relative="1" as="geometry">
            <mxPoint x="1383" y="904" as="sourcePoint" />
            <mxPoint x="1483" y="804" as="targetPoint" />
          </mxGeometry>
        </mxCell>
        <mxCell id="FQKN6vaa_cV45zGIfi0E-13" value="" style="shape=flexArrow;endArrow=classic;startArrow=classic;html=1;rounded=0;entryX=0;entryY=0;entryDx=70;entryDy=80;entryPerimeter=0;exitX=0.627;exitY=-0.027;exitDx=0;exitDy=0;exitPerimeter=0;" edge="1" parent="FQKN6vaa_cV45zGIfi0E-1" source="FQKN6vaa_cV45zGIfi0E-7" target="FQKN6vaa_cV45zGIfi0E-6">
          <mxGeometry width="100" height="100" relative="1" as="geometry">
            <mxPoint x="1414" y="1085" as="sourcePoint" />
            <mxPoint x="1514" y="985" as="targetPoint" />
          </mxGeometry>
        </mxCell>
        <mxCell id="FQKN6vaa_cV45zGIfi0E-14" value="Micro services - Data mapper" style="swimlane;whiteSpace=wrap;html=1;" vertex="1" parent="FQKN6vaa_cV45zGIfi0E-1">
          <mxGeometry x="1897" y="478" width="220" height="562" as="geometry" />
        </mxCell>
        <mxCell id="FQKN6vaa_cV45zGIfi0E-15" value="Python IA" style="shape=cube;whiteSpace=wrap;html=1;boundedLbl=1;backgroundOutline=1;darkOpacity=0.05;darkOpacity2=0.1;" vertex="1" parent="FQKN6vaa_cV45zGIfi0E-14">
          <mxGeometry x="49.5" y="81" width="126.5" height="78" as="geometry" />
        </mxCell>
        <mxCell id="FQKN6vaa_cV45zGIfi0E-16" value="Kafka Stream Join Tables" style="shape=cube;whiteSpace=wrap;html=1;boundedLbl=1;backgroundOutline=1;darkOpacity=0.05;darkOpacity2=0.1;" vertex="1" parent="FQKN6vaa_cV45zGIfi0E-14">
          <mxGeometry x="49.5" y="220" width="130.5" height="81" as="geometry" />
        </mxCell>
        <mxCell id="FQKN6vaa_cV45zGIfi0E-17" value="Data mappers" style="shape=cube;whiteSpace=wrap;html=1;boundedLbl=1;backgroundOutline=1;darkOpacity=0.05;darkOpacity2=0.1;" vertex="1" parent="FQKN6vaa_cV45zGIfi0E-14">
          <mxGeometry x="56" y="348" width="130.5" height="81" as="geometry" />
        </mxCell>
        <mxCell id="FQKN6vaa_cV45zGIfi0E-18" value="" style="shape=flexArrow;endArrow=classic;startArrow=classic;html=1;rounded=0;exitX=1;exitY=0.5;exitDx=0;exitDy=0;exitPerimeter=0;" edge="1" parent="FQKN6vaa_cV45zGIfi0E-1" source="FQKN6vaa_cV45zGIfi0E-4">
          <mxGeometry width="100" height="100" relative="1" as="geometry">
            <mxPoint x="1694" y="694" as="sourcePoint" />
            <mxPoint x="1897" y="734" as="targetPoint" />
          </mxGeometry>
        </mxCell>
        <mxCell id="FQKN6vaa_cV45zGIfi0E-19" value="Any MS" style="shape=cube;whiteSpace=wrap;html=1;boundedLbl=1;backgroundOutline=1;darkOpacity=0.05;darkOpacity2=0.1;" vertex="1" parent="FQKN6vaa_cV45zGIfi0E-1">
          <mxGeometry x="1385" y="1210" width="120" height="80" as="geometry" />
        </mxCell>
        <mxCell id="FQKN6vaa_cV45zGIfi0E-20" value="&lt;h1 style=&quot;margin-top: 0px;&quot;&gt;Java API&lt;/h1&gt;&lt;div&gt;Documented with swagger&lt;/div&gt;&lt;div&gt;Use Spring data to connect to Postgres&lt;/div&gt;" style="text;html=1;whiteSpace=wrap;overflow=hidden;rounded=0;" vertex="1" parent="FQKN6vaa_cV45zGIfi0E-1">
          <mxGeometry x="50" y="689.5" width="180" height="120" as="geometry" />
        </mxCell>
        <mxCell id="FQKN6vaa_cV45zGIfi0E-21" value="" style="shape=flexArrow;endArrow=classic;startArrow=classic;html=1;rounded=0;entryX=0;entryY=0.5;entryDx=0;entryDy=0;entryPerimeter=0;exitX=1;exitY=0.5;exitDx=0;exitDy=0;exitPerimeter=0;" edge="1" parent="FQKN6vaa_cV45zGIfi0E-1" source="FQKN6vaa_cV45zGIfi0E-10" target="FQKN6vaa_cV45zGIfi0E-4">
          <mxGeometry width="100" height="100" relative="1" as="geometry">
            <mxPoint x="988" y="928" as="sourcePoint" />
            <mxPoint x="1088" y="828" as="targetPoint" />
          </mxGeometry>
        </mxCell>
        <mxCell id="FQKN6vaa_cV45zGIfi0E-22" value="" style="shape=flexArrow;endArrow=classic;startArrow=classic;html=1;rounded=0;entryX=0;entryY=0.5;entryDx=0;entryDy=0;entryPerimeter=0;" edge="1" parent="FQKN6vaa_cV45zGIfi0E-1" source="FQKN6vaa_cV45zGIfi0E-5" target="FQKN6vaa_cV45zGIfi0E-10">
          <mxGeometry width="100" height="100" relative="1" as="geometry">
            <mxPoint x="596" y="855.5" as="sourcePoint" />
            <mxPoint x="696" y="755.5" as="targetPoint" />
          </mxGeometry>
        </mxCell>
        <mxCell id="FQKN6vaa_cV45zGIfi0E-23" value="Spring Data" style="text;html=1;align=center;verticalAlign=middle;resizable=0;points=[];autosize=1;strokeColor=none;fillColor=none;" vertex="1" parent="FQKN6vaa_cV45zGIfi0E-1">
          <mxGeometry x="455" y="682" width="81" height="26" as="geometry" />
        </mxCell>
        <mxCell id="FQKN6vaa_cV45zGIfi0E-24" value="" style="shape=flexArrow;endArrow=classic;startArrow=classic;html=1;rounded=0;exitX=0.274;exitY=-0.001;exitDx=0;exitDy=0;exitPerimeter=0;" edge="1" parent="FQKN6vaa_cV45zGIfi0E-1" source="FQKN6vaa_cV45zGIfi0E-7" target="FQKN6vaa_cV45zGIfi0E-8">
          <mxGeometry width="100" height="100" relative="1" as="geometry">
            <mxPoint x="1128" y="805" as="sourcePoint" />
            <mxPoint x="1228" y="705" as="targetPoint" />
          </mxGeometry>
        </mxCell>
        <mxCell id="FQKN6vaa_cV45zGIfi0E-25" value="" style="shape=flexArrow;endArrow=classic;startArrow=classic;html=1;rounded=0;exitX=0;exitY=0;exitDx=50;exitDy=0;exitPerimeter=0;entryX=0.245;entryY=0.969;entryDx=0;entryDy=0;entryPerimeter=0;" edge="1" parent="FQKN6vaa_cV45zGIfi0E-1" source="FQKN6vaa_cV45zGIfi0E-8" target="FQKN6vaa_cV45zGIfi0E-4">
          <mxGeometry width="100" height="100" relative="1" as="geometry">
            <mxPoint x="1128" y="805" as="sourcePoint" />
            <mxPoint x="1228" y="705" as="targetPoint" />
          </mxGeometry>
        </mxCell>
        <mxCell id="FQKN6vaa_cV45zGIfi0E-26" value="Watched collections" style="text;html=1;align=center;verticalAlign=middle;resizable=0;points=[];autosize=1;strokeColor=none;fillColor=none;" vertex="1" parent="FQKN6vaa_cV45zGIfi0E-1">
          <mxGeometry x="1247" y="280" width="124" height="26" as="geometry" />
        </mxCell>
        <mxCell id="FQKN6vaa_cV45zGIfi0E-27" value="" style="shape=flexArrow;endArrow=classic;html=1;rounded=0;exitX=0.394;exitY=0.985;exitDx=0;exitDy=0;exitPerimeter=0;" edge="1" parent="FQKN6vaa_cV45zGIfi0E-1" source="FQKN6vaa_cV45zGIfi0E-3">
          <mxGeometry width="50" height="50" relative="1" as="geometry">
            <mxPoint x="1575" y="502" as="sourcePoint" />
            <mxPoint x="1582" y="690" as="targetPoint" />
          </mxGeometry>
        </mxCell>
        <mxCell id="FQKN6vaa_cV45zGIfi0E-28" value="&lt;h1 style=&quot;margin-top: 0px;&quot;&gt;Firebase Connector&lt;/h1&gt;&lt;p&gt;Microservice responsible to read data from firebase and store data on the kafka broker&lt;/p&gt;" style="text;html=1;whiteSpace=wrap;overflow=hidden;rounded=0;" vertex="1" parent="FQKN6vaa_cV45zGIfi0E-1">
          <mxGeometry x="1747" y="221" width="243" height="120" as="geometry" />
        </mxCell>
        <mxCell id="FQKN6vaa_cV45zGIfi0E-29" value="firebase data provider" style="shape=cube;whiteSpace=wrap;html=1;boundedLbl=1;backgroundOutline=1;darkOpacity=0.05;darkOpacity2=0.1;" vertex="1" parent="FQKN6vaa_cV45zGIfi0E-1">
          <mxGeometry x="831" y="462" width="272" height="124" as="geometry" />
        </mxCell>
        <mxCell id="FQKN6vaa_cV45zGIfi0E-30" value="&lt;h1 style=&quot;margin-top: 0px;&quot;&gt;Firebase data provider&lt;/h1&gt;&lt;p&gt;Read information from Kafka broker and send to firebase&lt;/p&gt;" style="text;html=1;whiteSpace=wrap;overflow=hidden;rounded=0;" vertex="1" parent="FQKN6vaa_cV45zGIfi0E-1">
          <mxGeometry x="1173" y="478" width="324" height="82" as="geometry" />
        </mxCell>
        <mxCell id="FQKN6vaa_cV45zGIfi0E-31" value="" style="shape=flexArrow;endArrow=classic;startArrow=classic;html=1;rounded=0;entryX=0.715;entryY=0.973;entryDx=0;entryDy=0;entryPerimeter=0;exitX=0;exitY=0;exitDx=50;exitDy=0;exitPerimeter=0;" edge="1" parent="FQKN6vaa_cV45zGIfi0E-1" source="FQKN6vaa_cV45zGIfi0E-19" target="FQKN6vaa_cV45zGIfi0E-7">
          <mxGeometry width="100" height="100" relative="1" as="geometry">
            <mxPoint x="1195" y="1288" as="sourcePoint" />
            <mxPoint x="1295" y="1188" as="targetPoint" />
          </mxGeometry>
        </mxCell>
        <mxCell id="FQKN6vaa_cV45zGIfi0E-32" value="" style="shape=flexArrow;endArrow=classic;html=1;rounded=0;entryX=0.488;entryY=0.045;entryDx=0;entryDy=0;entryPerimeter=0;exitX=0.283;exitY=0.973;exitDx=0;exitDy=0;exitPerimeter=0;" edge="1" parent="FQKN6vaa_cV45zGIfi0E-1" source="FQKN6vaa_cV45zGIfi0E-7" target="FQKN6vaa_cV45zGIfi0E-9">
          <mxGeometry width="50" height="50" relative="1" as="geometry">
            <mxPoint x="1003" y="1187" as="sourcePoint" />
            <mxPoint x="1053" y="1137" as="targetPoint" />
          </mxGeometry>
        </mxCell>
        <mxCell id="FQKN6vaa_cV45zGIfi0E-33" value="" style="shape=flexArrow;endArrow=classic;startArrow=classic;html=1;rounded=0;entryX=0.163;entryY=0.035;entryDx=0;entryDy=0;entryPerimeter=0;" edge="1" parent="FQKN6vaa_cV45zGIfi0E-1" target="FQKN6vaa_cV45zGIfi0E-4">
          <mxGeometry width="100" height="100" relative="1" as="geometry">
            <mxPoint x="977" y="586" as="sourcePoint" />
            <mxPoint x="1078" y="434" as="targetPoint" />
          </mxGeometry>
        </mxCell>
        <mxCell id="FQKN6vaa_cV45zGIfi0E-34" value="&lt;h1 style=&quot;margin-top: 0px;&quot;&gt;Watched collections&lt;/h1&gt;&lt;p&gt;Firebase injector starts one process for each configured collection, when this collection receive a new value, the injector will convert this in a object and write in the Kafka topic&lt;/p&gt;" style="text;html=1;whiteSpace=wrap;overflow=hidden;rounded=0;" vertex="1" parent="FQKN6vaa_cV45zGIfi0E-1">
          <mxGeometry x="1193" y="122" width="243" height="120" as="geometry" />
        </mxCell>
        <mxCell id="FQKN6vaa_cV45zGIfi0E-35" value="Firestore" style="ellipse;shape=cloud;whiteSpace=wrap;html=1;" vertex="1" parent="FQKN6vaa_cV45zGIfi0E-1">
          <mxGeometry x="835" y="240" width="258" height="152" as="geometry" />
        </mxCell>
        <mxCell id="FQKN6vaa_cV45zGIfi0E-36" value="" style="points=[];aspect=fixed;html=1;align=center;shadow=0;dashed=0;fillColor=#1ba1e2;strokeColor=#006EAF;shape=mxgraph.alibaba_cloud.realtime_compute;fontColor=#ffffff;" vertex="1" parent="FQKN6vaa_cV45zGIfi0E-1">
          <mxGeometry x="944" y="262" width="40" height="40" as="geometry" />
        </mxCell>
        <mxCell id="FQKN6vaa_cV45zGIfi0E-37" value="&lt;h1 style=&quot;margin-top: 0px;&quot;&gt;Start Point&lt;/h1&gt;&lt;p&gt;The entry point of the app is the firestore webhooks, when the collection receive one new value, the process starts consuming the data and providing on the kafka&lt;/p&gt;" style="text;html=1;whiteSpace=wrap;overflow=hidden;rounded=0;" vertex="1" parent="FQKN6vaa_cV45zGIfi0E-1">
          <mxGeometry x="12" y="35" width="243" height="120" as="geometry" />
        </mxCell>
        <mxCell id="FQKN6vaa_cV45zGIfi0E-38" value="&lt;h1 style=&quot;margin-top: 0px;&quot;&gt;Data Processing&lt;/h1&gt;&lt;p&gt;The data inside of the Kafka is available to be cosumed, transformed,&amp;nbsp;&lt;/p&gt;" style="text;html=1;whiteSpace=wrap;overflow=hidden;rounded=0;" vertex="1" parent="FQKN6vaa_cV45zGIfi0E-1">
          <mxGeometry x="293" y="43.5" width="243" height="120" as="geometry" />
        </mxCell>
        <mxCell id="FQKN6vaa_cV45zGIfi0E-39" value="&lt;h1 style=&quot;margin-top: 0px;&quot;&gt;Receiving processed data&lt;/h1&gt;&lt;p&gt;The public topics allow to consume processed data and can be used&lt;span style=&quot;background-color: initial;&quot;&gt;&amp;nbsp;as source of AI data model or integrated with any kind of system.&amp;nbsp;&lt;br&gt;&lt;br&gt;In this example, there is one service to provide chart data to firebase as result of the process.&lt;/span&gt;&lt;/p&gt;" style="text;html=1;whiteSpace=wrap;overflow=hidden;rounded=0;" vertex="1" parent="FQKN6vaa_cV45zGIfi0E-1">
          <mxGeometry x="555.5" y="31" width="321" height="140" as="geometry" />
        </mxCell>
        <mxCell id="FQKN6vaa_cV45zGIfi0E-40" value="" style="points=[[0.25,0.25,0],[0.5,0,0],[0.75,0.25,0],[1,0.5,0],[0.75,0.75,0],[0.5,1,0],[0.25,0.75,0],[0,0.5,0]];shape=mxgraph.bpmn.gateway2;html=1;verticalLabelPosition=bottom;labelBackgroundColor=#ffffff;verticalAlign=top;align=center;perimeter=rhombusPerimeter;outlineConnect=0;outline=standard;symbol=general;" vertex="1" parent="FQKN6vaa_cV45zGIfi0E-1">
          <mxGeometry x="914" y="80" width="50" height="50" as="geometry" />
        </mxCell>
        <mxCell id="FQKN6vaa_cV45zGIfi0E-41" value="Start the process when receive a new data" style="text;html=1;align=center;verticalAlign=middle;whiteSpace=wrap;rounded=0;" vertex="1" parent="FQKN6vaa_cV45zGIfi0E-1">
          <mxGeometry x="986" y="92" width="123" height="43" as="geometry" />
        </mxCell>
        <mxCell id="FQKN6vaa_cV45zGIfi0E-42" style="edgeStyle=orthogonalEdgeStyle;rounded=0;orthogonalLoop=1;jettySize=auto;html=1;entryX=0.4;entryY=0.1;entryDx=0;entryDy=0;entryPerimeter=0;" edge="1" parent="FQKN6vaa_cV45zGIfi0E-1" source="FQKN6vaa_cV45zGIfi0E-40" target="FQKN6vaa_cV45zGIfi0E-35">
          <mxGeometry relative="1" as="geometry" />
        </mxCell>
        <mxCell id="FQKN6vaa_cV45zGIfi0E-43" value="" style="shape=flexArrow;endArrow=classic;html=1;rounded=0;exitX=0;exitY=0;exitDx=126;exitDy=0;exitPerimeter=0;entryX=0.468;entryY=0.932;entryDx=0;entryDy=0;entryPerimeter=0;" edge="1" parent="FQKN6vaa_cV45zGIfi0E-1" source="FQKN6vaa_cV45zGIfi0E-29" target="FQKN6vaa_cV45zGIfi0E-35">
          <mxGeometry width="50" height="50" relative="1" as="geometry">
            <mxPoint x="736" y="299" as="sourcePoint" />
            <mxPoint x="786" y="249" as="targetPoint" />
          </mxGeometry>
        </mxCell>
        <mxCell id="FQKN6vaa_cV45zGIfi0E-44" value="Gateway" style="shape=cube;whiteSpace=wrap;html=1;boundedLbl=1;backgroundOutline=1;darkOpacity=0.05;darkOpacity2=0.1;" vertex="1" parent="FQKN6vaa_cV45zGIfi0E-1">
          <mxGeometry x="290" y="542" width="120" height="80" as="geometry" />
        </mxCell>
        <mxCell id="FQKN6vaa_cV45zGIfi0E-45" value="Firebase auth" style="ellipse;shape=cloud;whiteSpace=wrap;html=1;" vertex="1" parent="FQKN6vaa_cV45zGIfi0E-1">
          <mxGeometry x="567" y="240" width="258" height="152" as="geometry" />
        </mxCell>
        <mxCell id="FQKN6vaa_cV45zGIfi0E-46" value="" style="html=1;verticalLabelPosition=bottom;align=center;labelBackgroundColor=#ffffff;verticalAlign=top;strokeWidth=2;strokeColor=#006EAF;shadow=0;dashed=0;shape=mxgraph.ios7.icons.locked;fillColor=#1ba1e2;fontColor=#ffffff;" vertex="1" parent="FQKN6vaa_cV45zGIfi0E-1">
          <mxGeometry x="642" y="269" width="24" height="30" as="geometry" />
        </mxCell>
        <mxCell id="FQKN6vaa_cV45zGIfi0E-47" value="" style="sketch=0;verticalLabelPosition=bottom;sketch=0;aspect=fixed;html=1;verticalAlign=top;strokeColor=#006EAF;fillColor=#1ba1e2;align=center;outlineConnect=0;pointerEvents=1;shape=mxgraph.citrix2.authentication_google;fontColor=#ffffff;" vertex="1" parent="FQKN6vaa_cV45zGIfi0E-1">
          <mxGeometry x="680" y="269" width="32" height="32" as="geometry" />
        </mxCell>
        <mxCell id="FQKN6vaa_cV45zGIfi0E-48" value="" style="dashed=0;outlineConnect=0;html=1;align=center;labelPosition=center;verticalLabelPosition=bottom;verticalAlign=top;shape=mxgraph.weblogos.apple;fillColor=#1ba1e2;strokeColor=#006EAF;fontColor=#ffffff;" vertex="1" parent="FQKN6vaa_cV45zGIfi0E-1">
          <mxGeometry x="728" y="270.5" width="28" height="29" as="geometry" />
        </mxCell>
        <mxCell id="FQKN6vaa_cV45zGIfi0E-49" value="" style="html=1;verticalLabelPosition=bottom;align=center;labelBackgroundColor=#ffffff;verticalAlign=top;strokeWidth=2;strokeColor=#006EAF;shadow=0;dashed=0;shape=mxgraph.ios7.icons.locked;fillColor=#1ba1e2;fontColor=#ffffff;" vertex="1" parent="FQKN6vaa_cV45zGIfi0E-1">
          <mxGeometry x="704" y="567" width="24" height="30" as="geometry" />
        </mxCell>
        <mxCell id="FQKN6vaa_cV45zGIfi0E-50" value="" style="shape=flexArrow;endArrow=classic;startArrow=classic;html=1;rounded=0;entryX=0.55;entryY=0.95;entryDx=0;entryDy=0;entryPerimeter=0;exitX=0.458;exitY=-0.144;exitDx=0;exitDy=0;exitPerimeter=0;" edge="1" parent="FQKN6vaa_cV45zGIfi0E-1" source="FQKN6vaa_cV45zGIfi0E-49" target="FQKN6vaa_cV45zGIfi0E-45">
          <mxGeometry width="100" height="100" relative="1" as="geometry">
            <mxPoint x="600" y="565" as="sourcePoint" />
            <mxPoint x="700" y="465" as="targetPoint" />
          </mxGeometry>
        </mxCell>
        <mxCell id="FQKN6vaa_cV45zGIfi0E-51" value="" style="shape=flexArrow;endArrow=classic;startArrow=classic;html=1;rounded=0;exitX=0;exitY=0;exitDx=120;exitDy=50;exitPerimeter=0;entryX=0.153;entryY=0.822;entryDx=0;entryDy=0;entryPerimeter=0;" edge="1" parent="FQKN6vaa_cV45zGIfi0E-1" source="FQKN6vaa_cV45zGIfi0E-44" target="FQKN6vaa_cV45zGIfi0E-49">
          <mxGeometry width="100" height="100" relative="1" as="geometry">
            <mxPoint x="600" y="565" as="sourcePoint" />
            <mxPoint x="700" y="465" as="targetPoint" />
          </mxGeometry>
        </mxCell>
        <mxCell id="FQKN6vaa_cV45zGIfi0E-52" value="" style="shape=flexArrow;endArrow=classic;startArrow=classic;html=1;rounded=0;exitX=0.498;exitY=0.015;exitDx=0;exitDy=0;exitPerimeter=0;entryX=0.488;entryY=0.996;entryDx=0;entryDy=0;entryPerimeter=0;" edge="1" parent="FQKN6vaa_cV45zGIfi0E-1" source="FQKN6vaa_cV45zGIfi0E-5" target="FQKN6vaa_cV45zGIfi0E-44">
          <mxGeometry width="100" height="100" relative="1" as="geometry">
            <mxPoint x="344" y="565" as="sourcePoint" />
            <mxPoint x="411" y="482" as="targetPoint" />
          </mxGeometry>
        </mxCell>
        <mxCell id="FQKN6vaa_cV45zGIfi0E-53" value="Authenticatetion" style="text;html=1;align=center;verticalAlign=middle;whiteSpace=wrap;rounded=0;" vertex="1" parent="FQKN6vaa_cV45zGIfi0E-1">
          <mxGeometry x="527" y="548" width="60" height="30" as="geometry" />
        </mxCell>
        <mxCell id="FQKN6vaa_cV45zGIfi0E-54" value="&lt;h1 style=&quot;margin-top: 0px;&quot;&gt;Authentification&lt;/h1&gt;&lt;p&gt;The gateway uses firebase auth to retreive the user information and protect the external access&lt;/p&gt;" style="text;html=1;whiteSpace=wrap;overflow=hidden;rounded=0;" vertex="1" parent="FQKN6vaa_cV45zGIfi0E-1">
          <mxGeometry x="423" y="407" width="243" height="120" as="geometry" />
        </mxCell>
        <mxCell id="FQKN6vaa_cV45zGIfi0E-55" value="&lt;h1 style=&quot;margin-top: 0px;&quot;&gt;Monitoring&lt;/h1&gt;&lt;p&gt;Kibana provides dashboards with overview of the whole environment&lt;/p&gt;" style="text;html=1;whiteSpace=wrap;overflow=hidden;rounded=0;" vertex="1" parent="FQKN6vaa_cV45zGIfi0E-1">
          <mxGeometry x="549" y="1107" width="243" height="120" as="geometry" />
        </mxCell>
      </root>
    </mxGraphModel>
  </diagram>
</mxfile>
